<svg width="31" height="19" viewBox="0 0 31 19" fill="none" xmlns="http://www.w3.org/2000/svg">
<path d="M19.184 3.1L20 3.1L20 4.468L15.524 7.48L19.184 7.48L19.184 6.7L20 6.7L20 9.22L19.184 9.22L19.184 8.464L11.816 8.464L11.816 9.22L11 9.22L11 6.7L11.816 6.7L11.816 7.528L15.164 7.528L11 4.468L11 3.172L11.816 3.172L11.816 3.976L15.32 6.472L19.184 3.868L19.184 3.1Z" fill="url(#paint0_linear_2_7)"/>
<path d="M20 13.956C20 14.548 19.868 14.956 19.604 15.18C19.348 15.412 18.956 15.528 18.428 15.528L12.572 15.528C12.02 15.528 11.62 15.4 11.372 15.144C11.124 14.888 11 14.492 11 13.956L11 9.72L11.816 9.72L11.816 10.476L19.184 10.476L19.184 9.72L20 9.72L20 13.956ZM19.184 14.544L19.184 11.46L11.816 11.46L11.816 14.544L19.184 14.544Z" fill="url(#paint1_linear_2_7)"/>
<path d="M1.81 9.544V8.328L9.026 4.856V5.96L2.978 8.936L9.026 11.928V13.032L1.81 9.544Z" fill="url(#paint2_linear_2_7)"/>
<path d="M21.98 4.856L29.196 8.328V9.544L21.98 13.032V11.928L28.028 8.936L21.98 5.96V4.856Z" fill="url(#paint3_linear_2_7)"/>
<defs>
<linearGradient id="paint0_linear_2_7" x1="8" y1="6" x2="23" y2="6" gradientUnits="userSpaceOnUse">
<stop stop-color="#FFD700"/>
<stop offset="1" stop-color="#C0C0C0"/>
</linearGradient>
<linearGradient id="paint1_linear_2_7" x1="23" y1="13" x2="8" y2="13" gradientUnits="userSpaceOnUse">
<stop stop-color="#FFD700"/>
<stop offset="1" stop-color="#C0C0C0"/>
</linearGradient>
<linearGradient id="paint2_linear_2_7" x1="5.35" y1="0" x2="5.35" y2="19" gradientUnits="userSpaceOnUse">
<stop stop-color="#FFD700"/>
<stop offset="1" stop-color="#C0C0C0"/>
</linearGradient>
<linearGradient id="paint3_linear_2_7" x1="26" y1="0" x2="26" y2="19" gradientUnits="userSpaceOnUse">
<stop stop-color="#FFD700"/>
<stop offset="1" stop-color="#C0C0C0"/>
</linearGradient>
</defs>
</svg>
